<svg xmlns="http://www.w3.org/2000/svg" version="1.1" xmlns:xlink="http://www.w3.org/1999/xlink" xmlns:svgjs="http://svgjs.dev/svgjs" width="1000" height="750" viewBox="0 0 1000 750"><rect width="1000" height="750" fill="#ffffff"></rect><g transform="matrix(0.834,0,0,0.834,82.49454545454546,227.4493031627849)"><svg viewBox="0 0 396 140" data-background-color="#ffffff" preserveAspectRatio="xMidYMid meet" height="353" width="1000" xmlns="http://www.w3.org/2000/svg" xmlns:xlink="http://www.w3.org/1999/xlink"><g id="tight-bounds" transform="matrix(1,0,0,1,0.2400000000000091,0.16629492058515893)"><svg viewBox="0 0 395.52 139.66741015882968" height="139.66741015882968" width="395.52"><g><svg viewBox="0 0 395.52 139.66741015882968" height="139.66741015882968" width="395.52"><g transform="matrix(1,0,0,1,0,86.32006265675957)"><svg viewBox="0 0 395.52 53.34734750207009" height="53.34734750207009" width="395.52"><g id="textblocktransform"><svg viewBox="0 0 395.52 53.34734750207009" height="53.34734750207009" width="395.52" id="textblock"><g><svg viewBox="0 0 395.52 53.34734750207009" height="53.34734750207009" width="395.52"><g transform="matrix(1,0,0,1,0,0)"><svg width="395.52" viewBox="1.45 -36.23 271.71000000000004 36.66" height="53.34734750207009" data-palette-color="#b10dc9"><path d="M23.88-32.52L22.7-30.23Q22.48-29.85 22.23-29.66 21.98-29.48 21.58-29.48L21.58-29.48Q21.15-29.48 20.59-29.9 20.03-30.33 19.16-30.84 18.3-31.35 17.09-31.78 15.88-32.2 14.15-32.2L14.15-32.2Q12.53-32.2 11.28-31.76 10.03-31.33 9.19-30.58 8.35-29.83 7.93-28.81 7.5-27.8 7.5-26.63L7.5-26.63Q7.5-25.13 8.24-24.14 8.97-23.15 10.19-22.45 11.4-21.75 12.94-21.24 14.48-20.73 16.09-20.18 17.7-19.63 19.24-18.94 20.78-18.25 21.99-17.2 23.2-16.15 23.94-14.63 24.68-13.1 24.68-10.88L24.68-10.88Q24.68-8.53 23.88-6.46 23.08-4.4 21.54-2.88 20-1.35 17.76-0.48 15.53 0.4 12.68 0.4L12.68 0.4Q9.2 0.4 6.34-0.86 3.48-2.13 1.45-4.28L1.45-4.28 2.85-6.58Q3.05-6.85 3.34-7.04 3.63-7.23 3.98-7.23L3.98-7.23Q4.5-7.23 5.18-6.66 5.85-6.1 6.86-5.43 7.88-4.75 9.31-4.19 10.75-3.63 12.83-3.63L12.83-3.63Q14.55-3.63 15.9-4.1 17.25-4.58 18.19-5.44 19.13-6.3 19.63-7.5 20.13-8.7 20.13-10.18L20.13-10.18Q20.13-11.8 19.39-12.84 18.65-13.88 17.45-14.58 16.25-15.28 14.71-15.76 13.18-16.25 11.56-16.76 9.95-17.28 8.41-17.95 6.88-18.63 5.68-19.7 4.48-20.78 3.74-22.39 3-24 3-26.38L3-26.38Q3-28.28 3.74-30.05 4.48-31.83 5.88-33.2 7.28-34.58 9.34-35.4 11.4-36.23 14.08-36.23L14.08-36.23Q17.07-36.23 19.55-35.27 22.03-34.33 23.88-32.52L23.88-32.52ZM27.2-35.83L55.25-35.83 55.25-31.75 43.67-31.75 43.67 0 38.82 0 38.82-31.75 27.2-31.75 27.2-35.83ZM74.27-3.85L74.27-3.85Q76.5-3.85 78.25-4.6 80-5.35 81.21-6.7 82.42-8.05 83.06-9.93 83.7-11.8 83.7-14.05L83.7-14.05 83.7-35.83 88.52-35.83 88.52-14.05Q88.52-10.95 87.53-8.3 86.55-5.65 84.71-3.71 82.87-1.78 80.22-0.68 77.57 0.43 74.27 0.43L74.27 0.43Q70.97 0.43 68.32-0.68 65.67-1.78 63.82-3.71 61.97-5.65 60.98-8.3 60-10.95 60-14.05L60-14.05 60-35.83 64.82-35.83 64.82-14.08Q64.82-11.83 65.46-9.95 66.09-8.08 67.31-6.73 68.52-5.38 70.28-4.61 72.05-3.85 74.27-3.85ZM127.89-17.9L127.89-17.9Q127.89-13.88 126.62-10.58 125.34-7.28 123.02-4.93 120.69-2.58 117.44-1.29 114.19 0 110.24 0L110.24 0 96.84 0 96.84-35.83 110.24-35.83Q114.19-35.83 117.44-34.54 120.69-33.25 123.02-30.89 125.34-28.53 126.62-25.23 127.89-21.93 127.89-17.9ZM122.92-17.9L122.92-17.9Q122.92-21.2 122.02-23.8 121.12-26.4 119.47-28.2 117.82-30 115.47-30.95 113.12-31.9 110.24-31.9L110.24-31.9 101.72-31.9 101.72-3.93 110.24-3.93Q113.12-3.93 115.47-4.88 117.82-5.83 119.47-7.61 121.12-9.4 122.02-12 122.92-14.6 122.92-17.9ZM159.44-35.83L146.29-14.25 146.29 0 141.47 0 141.47-14.25 128.34-35.83 132.59-35.83Q133.24-35.83 133.62-35.5 133.99-35.18 134.27-34.7L134.27-34.7 142.47-20.78Q142.97-19.9 143.3-19.13 143.64-18.35 143.92-17.6L143.92-17.6Q144.19-18.38 144.52-19.15 144.84-19.93 145.34-20.78L145.34-20.78 153.52-34.7Q153.74-35.1 154.13-35.46 154.52-35.83 155.14-35.83L155.14-35.83 159.44-35.83ZM192.99-35.83L192.99 0 188.11 0 188.11-16.3 168.81-16.3 168.81 0 163.94 0 163.94-35.83 168.81-35.83 168.81-19.85 188.11-19.85 188.11-35.83 192.99-35.83ZM207.49-35.83L207.49 0 202.64 0 202.64-35.83 207.49-35.83ZM227.53 0L212.93-35.83 216.81-35.83Q217.46-35.83 217.86-35.5 218.26-35.18 218.46-34.68L218.46-34.68 228.58-9.4Q228.93-8.55 229.22-7.55 229.51-6.55 229.78-5.48L229.78-5.48Q230.01-6.55 230.27-7.55 230.53-8.55 230.88-9.4L230.88-9.4 240.96-34.68Q241.13-35.1 241.56-35.46 241.98-35.83 242.61-35.83L242.61-35.83 246.51-35.83 231.91 0 227.53 0ZM251.08-35.83L273.16-35.83 273.16-31.88 255.96-31.88 255.96-19.98 269.88-19.98 269.88-16.18 255.96-16.18 255.96-3.95 273.16-3.95 273.16 0 251.08 0 251.08-35.83Z" opacity="1" transform="matrix(1,0,0,1,0,0)" fill="#b10dc9" class="wordmark-text-0" data-fill-palette-color="primary" id="text-0"></path></svg></g></svg></g></svg></g></svg></g><g transform="matrix(1,0,0,1,160.89698287606956,0)"><svg viewBox="0 0 73.7260342478609 73.72603424786088" height="73.72603424786088" width="73.7260342478609"><g><svg></svg></g><g id="icon-0"><svg viewBox="0 0 73.7260342478609 73.72603424786088" height="73.72603424786088" width="73.7260342478609"><g><path transform="scale(0.73726,0.73726)" d="M30 100c-16.569 0-30-13.431-30-30v-40c0-16.569 13.431-30 30-30h40c16.569 0 30 13.431 30 30v40c0 16.569-13.431 30-30 30z" fill="#6936f5" fill-rule="nonzero" stroke="none" stroke-width="1" stroke-linecap="butt" stroke-linejoin="miter" stroke-miterlimit="10" stroke-dasharray="" stroke-dashoffset="0" font-family="none" font-weight="none" font-size="none" text-anchor="none" style="mix-blend-mode: normal" data-fill-palette-color="accent"></path></g><g transform="matrix(1,0,0,1,14.745206849572188,14.982102029069164)"><svg viewBox="0 0 44.23562054871652 43.76183018972255" height="43.76183018972255" width="44.23562054871652"><g><svg xmlns="http://www.w3.org/2000/svg" xmlns:xlink="http://www.w3.org/1999/xlink" version="1.0" x="0" y="0" viewBox="5.811491154151473 6.842561700000008 88.04368203410974 87.10068073333332" enable-background="new 0 0 100 100" xml:space="preserve" height="43.76183018972255" width="44.23562054871652" class="icon-z$-0" data-fill-palette-color="quaternary" id="z$-0"><path d="M93.855 64.249c0 0-0.297-10.559-7.139-14.277 0 0 1.19-11.303-8.626-17.698 0 0-2.379-9.369-11.302-13.534 0 0-1.19-11.154-16.211-11.897h-1.487c-15.021 0.744-16.211 11.898-16.211 11.897-8.923 4.164-11.303 13.534-11.303 13.534-9.816 6.395-8.626 17.698-8.625 17.698-6.841 3.718-7.139 14.277-7.139 14.277s-0.149 6.246 4.313 9.072c0 0 2.23 16.062 17.326 18.441 0 0 18.043 4.908 44.765 0 15.03-2.76 17.326-18.441 17.326-18.441C94.003 70.495 93.855 64.249 93.855 64.249zM49.09 8.627h1.487c13.236 0.744 13.236 9.369 13.236 9.37-15.308-4.313-27.959 0-27.959 0S35.854 9.371 49.09 8.627zM49.833 18.02c-0.247-0.008-0.492-0.017-0.743-0.023h1.487C50.325 18.002 50.08 18.012 49.833 18.02c24.683 0.828 24.688 13.488 24.688 13.488-26.946-6.714-49.375 0-49.375 0S25.15 18.848 49.833 18.02zM23.212 34.058c0 0 9.397-3.941 26.621-3.42 18.134-0.632 26.621 3.421 26.621 3.42 8.923 5.057 7.436 14.426 7.436 14.426-34.27-9.184-68.114 0-68.114 0S14.289 39.115 23.212 34.058zM63.813 91.018c-14.806 1.385-27.959 0-27.959 0-19.78-1.19-22.308-16.359-22.308-16.359s11.451 3.123 33.908 3.718h4.759c22.457-0.595 33.908-3.718 33.908-3.718S83.543 89.173 63.813 91.018zM88.352 70.792c-1.645 1.747-4.369 1.989-4.369 1.99-8.671 1.495-16.936 2.309-24.535 2.675 1.005-5.013 2.794-19.317-9.615-18.949-12.446-0.369-10.609 14.023-9.605 18.995-13.583-0.592-22.712-2.334-24.545-2.721-3.429-0.725-4.369-1.989-4.368-1.99s-4.015-5.057-1.785-11.302 6.841-10.708 24.836-11.898c0 0 13.766-1.376 30.934 0 17.977 1.441 22.606 5.651 24.837 11.898C92.367 65.736 88.352 70.792 88.352 70.792z" fill="#ffffff" data-fill-palette-color="quaternary"></path></svg></g></svg></g></svg></g></svg></g><g></g></svg></g><defs></defs></svg><rect width="395.52" height="139.66741015882968" fill="none" stroke="none" visibility="hidden"></rect></g></svg></g></svg>